<?xml version="1.0" encoding="UTF-8" standalone="no"?>
<!-- Created with Inkscape (http://www.inkscape.org/) -->

<svg
   width="41.409851mm"
   height="152.88431mm"
   viewBox="0 0 41.409851 152.88431"
   version="1.1"
   id="svg1"
   inkscape:version="1.3.2 (091e20e, 2023-11-25, custom)"
   sodipodi:docname="map-courthouse-bench.svg"
   xmlns:inkscape="http://www.inkscape.org/namespaces/inkscape"
   xmlns:sodipodi="http://sodipodi.sourceforge.net/DTD/sodipodi-0.dtd"
   xmlns="http://www.w3.org/2000/svg"
   xmlns:svg="http://www.w3.org/2000/svg">
  <sodipodi:namedview
     id="namedview1"
     pagecolor="#ffffff"
     bordercolor="#000000"
     borderopacity="0.25"
     inkscape:showpageshadow="2"
     inkscape:pageopacity="0.0"
     inkscape:pagecheckerboard="0"
     inkscape:deskcolor="#d1d1d1"
     inkscape:document-units="mm"
     inkscape:zoom="1.187507"
     inkscape:cx="78.315327"
     inkscape:cy="289.26145"
     inkscape:window-width="3840"
     inkscape:window-height="1529"
     inkscape:window-x="-8"
     inkscape:window-y="-8"
     inkscape:window-maximized="1"
     inkscape:current-layer="layer1" />
  <defs
     id="defs1" />
  <g
     inkscape:label="Layer 1"
     inkscape:groupmode="layer"
     id="layer1"
     transform="translate(-84.137509,-71.966684)">
    <g
       id="g10-8-4-1-1"
       transform="translate(-458.70383,-286.72192)">
      <rect
         style="fill:#431500;fill-opacity:1;stroke:#000000;stroke-width:2.09552;stroke-linejoin:round;stroke-dasharray:none;stroke-opacity:1;paint-order:stroke fill markers"
         id="rect2-3-3-7-2-3-1-7-21-27-5-2"
         width="37.118587"
         height="142.87666"
         x="543.8891"
         y="363.80737" />
      <g
         id="g9-1-7-2-3"
         transform="translate(138.77402,-297.553)">
        <rect
           style="fill:#2b2444;fill-opacity:1;fill-rule:nonzero;stroke:#000000;stroke-width:1.59544;stroke-linejoin:round;stroke-dasharray:none;stroke-opacity:1;paint-order:stroke fill markers"
           id="rect2-3-3-7-2-3-1-7-1-9-9-7-3"
           width="32.275463"
           height="32.999336"
           x="407.46561"
           y="698.50769"
           ry="4.8231072"
           rx="4.8231072" />
        <path
           d="m 438.57788,700.18258 c -0.88318,-1.02678 -2.19293,-1.67483 -3.65972,-1.67483 h -22.62963 c -1.3902,0 -2.63902,0.58223 -3.51762,1.51722 l 14.98204,14.98255 z"
           style="fill:#352d53;fill-opacity:1;stroke-width:4.89741;stroke-linejoin:round;paint-order:stroke fill markers"
           id="path7-76-3-6-4" />
        <path
           d="m 423.75295,715.00752 -14.98204,14.98203 c 0.8786,0.935 2.12741,1.51722 3.51762,1.51722 h 22.62963 c 1.46681,0 2.77654,-0.64803 3.65972,-1.67483 z"
           style="fill:#352d53;fill-opacity:1;stroke-width:4.89741;stroke-linejoin:round;paint-order:stroke fill markers"
           id="path9-2-19-1-1" />
        <path
           sodipodi:type="star"
           style="display:inline;opacity:0.653;mix-blend-mode:normal;fill:#2e293f;fill-opacity:1;stroke:#1c1829;stroke-width:3.18135;stroke-linejoin:miter;stroke-dasharray:none;stroke-opacity:1;paint-order:stroke fill markers"
           id="path17-1-15-2-0-2-9-8-4-1"
           inkscape:flatsided="false"
           sodipodi:sides="4"
           sodipodi:cx="1282.069"
           sodipodi:cy="772.31354"
           sodipodi:r1="0.073081508"
           sodipodi:r2="0.036540754"
           sodipodi:arg1="3.1415927"
           sodipodi:arg2="3.9269908"
           inkscape:rounded="0"
           inkscape:randomized="0"
           d="m 1281.9959,772.31354 0.047,-0.0258 0.026,-0.0472 0.026,0.0472 0.047,0.0258 -0.047,0.0258 -0.026,0.0472 -0.026,-0.0472 z"
           transform="rotate(115.19857,871.07588,471.33977)" />
        <rect
           style="fill:#2b2444;fill-opacity:1;fill-rule:nonzero;stroke:#000000;stroke-width:1.59544;stroke-linejoin:round;stroke-dasharray:none;stroke-opacity:1;paint-order:stroke fill markers"
           id="rect2-3-3-7-2-3-1-7-1-9-9-8-2-3"
           width="32.275463"
           height="32.999336"
           x="407.46561"
           y="663.10291"
           ry="4.8231072"
           rx="4.8231072" />
        <path
           d="m 438.57788,664.77776 c -0.88318,-1.02678 -2.19293,-1.67483 -3.65972,-1.67483 h -22.62963 c -1.3902,0 -2.63902,0.58223 -3.51762,1.51722 l 14.98204,14.98255 z"
           style="fill:#352d53;fill-opacity:1;stroke-width:4.89741;stroke-linejoin:round;paint-order:stroke fill markers"
           id="path7-76-3-2-3-8" />
        <path
           d="m 423.75295,679.6027 -14.98204,14.98203 c 0.8786,0.935 2.12741,1.51722 3.51762,1.51722 h 22.62963 c 1.46681,0 2.77654,-0.64803 3.65972,-1.67483 z"
           style="fill:#352d53;fill-opacity:1;stroke-width:4.89741;stroke-linejoin:round;paint-order:stroke fill markers"
           id="path9-2-19-4-2-7" />
        <path
           sodipodi:type="star"
           style="display:inline;opacity:0.653;mix-blend-mode:normal;fill:#2e293f;fill-opacity:1;stroke:#1c1829;stroke-width:3.18135;stroke-linejoin:miter;stroke-dasharray:none;stroke-opacity:1;paint-order:stroke fill markers"
           id="path17-1-15-2-0-2-9-8-5-2-4"
           inkscape:flatsided="false"
           sodipodi:sides="4"
           sodipodi:cx="1282.069"
           sodipodi:cy="772.31354"
           sodipodi:r1="0.073081508"
           sodipodi:r2="0.036540754"
           sodipodi:arg1="3.1415927"
           sodipodi:arg2="3.9269908"
           inkscape:rounded="0"
           inkscape:randomized="0"
           d="m 1281.9959,772.31354 0.047,-0.0258 0.026,-0.0472 0.026,0.0472 0.047,0.0258 -0.047,0.0258 -0.026,0.0472 -0.026,-0.0472 z"
           transform="rotate(115.19857,882.31049,453.63735)" />
      </g>
      <g
         id="g9-6-5-6-1-2"
         transform="translate(138.84507,-262.05003)">
        <rect
           style="fill:#2b2444;fill-opacity:1;fill-rule:nonzero;stroke:#000000;stroke-width:1.59544;stroke-linejoin:round;stroke-dasharray:none;stroke-opacity:1;paint-order:stroke fill markers"
           id="rect2-3-3-7-2-3-1-7-1-0-2-5-6-7"
           width="32.275463"
           height="32.999336"
           x="407.46561"
           y="698.50769"
           ry="4.8231072"
           rx="4.8231072" />
        <path
           d="m 438.57788,700.18258 c -0.88318,-1.02678 -2.19293,-1.67483 -3.65972,-1.67483 h -22.62963 c -1.3902,0 -2.63902,0.58223 -3.51762,1.51722 l 14.98204,14.98255 z"
           style="fill:#352d53;fill-opacity:1;stroke-width:4.89741;stroke-linejoin:round;paint-order:stroke fill markers"
           id="path7-7-0-0-8-7" />
        <path
           d="m 423.75295,715.00752 -14.98204,14.98203 c 0.8786,0.935 2.12741,1.51722 3.51762,1.51722 h 22.62963 c 1.46681,0 2.77654,-0.64803 3.65972,-1.67483 z"
           style="fill:#352d53;fill-opacity:1;stroke-width:4.89741;stroke-linejoin:round;paint-order:stroke fill markers"
           id="path9-1-03-28-5-9" />
        <path
           sodipodi:type="star"
           style="display:inline;opacity:0.653;mix-blend-mode:normal;fill:#2e293f;fill-opacity:1;stroke:#1c1829;stroke-width:3.18135;stroke-linejoin:miter;stroke-dasharray:none;stroke-opacity:1;paint-order:stroke fill markers"
           id="path17-1-15-2-0-2-7-9-6-7-3"
           inkscape:flatsided="false"
           sodipodi:sides="4"
           sodipodi:cx="1282.069"
           sodipodi:cy="772.31354"
           sodipodi:r1="0.073081508"
           sodipodi:r2="0.036540754"
           sodipodi:arg1="3.1415927"
           sodipodi:arg2="3.9269908"
           inkscape:rounded="0"
           inkscape:randomized="0"
           d="m 1281.9959,772.31354 0.047,-0.0258 0.026,-0.0472 0.026,0.0472 0.047,0.0258 -0.047,0.0258 -0.026,0.0472 -0.026,-0.0472 z"
           transform="rotate(115.19857,871.07588,471.33977)" />
      </g>
      <g
         id="g9-6-3-1-0-6-1"
         transform="translate(138.91613,-226.57156)">
        <rect
           style="fill:#2b2444;fill-opacity:1;fill-rule:nonzero;stroke:#000000;stroke-width:1.59544;stroke-linejoin:round;stroke-dasharray:none;stroke-opacity:1;paint-order:stroke fill markers"
           id="rect2-3-3-7-2-3-1-7-1-0-5-8-2-1-9"
           width="32.275463"
           height="32.999336"
           x="407.46561"
           y="698.50769"
           ry="4.8231072"
           rx="4.8231072" />
        <path
           d="m 438.57788,700.18258 c -0.88318,-1.02678 -2.19293,-1.67483 -3.65972,-1.67483 h -22.62963 c -1.3902,0 -2.63902,0.58223 -3.51762,1.51722 l 14.98204,14.98255 z"
           style="fill:#352d53;fill-opacity:1;stroke-width:4.89741;stroke-linejoin:round;paint-order:stroke fill markers"
           id="path7-7-9-1-48-8-8" />
        <path
           d="m 423.75295,715.00752 -14.98204,14.98203 c 0.8786,0.935 2.12741,1.51722 3.51762,1.51722 h 22.62963 c 1.46681,0 2.77654,-0.64803 3.65972,-1.67483 z"
           style="fill:#352d53;fill-opacity:1;stroke-width:4.89741;stroke-linejoin:round;paint-order:stroke fill markers"
           id="path9-1-9-9-6-9-6" />
        <path
           sodipodi:type="star"
           style="display:inline;opacity:0.653;mix-blend-mode:normal;fill:#2e293f;fill-opacity:1;stroke:#1c1829;stroke-width:3.18135;stroke-linejoin:miter;stroke-dasharray:none;stroke-opacity:1;paint-order:stroke fill markers"
           id="path17-1-15-2-0-2-7-8-5-5-2-5"
           inkscape:flatsided="false"
           sodipodi:sides="4"
           sodipodi:cx="1282.069"
           sodipodi:cy="772.31354"
           sodipodi:r1="0.073081508"
           sodipodi:r2="0.036540754"
           sodipodi:arg1="3.1415927"
           sodipodi:arg2="3.9269908"
           inkscape:rounded="0"
           inkscape:randomized="0"
           d="m 1281.9959,772.31354 0.047,-0.0258 0.026,-0.0472 0.026,0.0472 0.047,0.0258 -0.047,0.0258 -0.026,0.0472 -0.026,-0.0472 z"
           transform="rotate(115.19857,871.07588,471.33977)" />
      </g>
      <rect
         style="fill:#30235d;fill-opacity:1;stroke:#000000;stroke-width:3.57842;stroke-linejoin:round;stroke-dasharray:none;stroke-opacity:1;paint-order:stroke fill markers"
         id="rect2-3-3-7-2-3-1-7-6-3-0-7-0"
         width="10.220158"
         height="149.30589"
         x="572.24182"
         y="360.47781" />
    </g>
  </g>
</svg>
